inDegrees=yes
name=ik_S57_A12_T01
DataType=double
version=3
OpenSimVersion=4.3-2021-08-27-4bc7ad9
endheader
time	pelvis_tilt	pelvis_list	pelvis_rotation	pelvis_tx	pelvis_ty	pelvis_tz	hip_flexion_r	hip_adduction_r	hip_rotation_r	knee_angle_r	knee_angle_r_beta	ankle_angle_r	subtalar_angle_r	mtp_angle_r	hip_flexion_l	hip_adduction_l	hip_rotation_l	knee_angle_l	knee_angle_l_beta	ankle_angle_l	subtalar_angle_l	mtp_angle_l	lumbar_extension	lumbar_bending	lumbar_rotation	arm_flex_r	arm_add_r	arm_rot_r	elbow_flex_r	pro_sup_r	wrist_flex_r	wrist_dev_r	arm_flex_l	arm_add_l	arm_rot_l	elbow_flex_l	pro_sup_l	wrist_flex_l	wrist_dev_l
8.339999999999911	-0.5504711784224409	2.222046455821227	21.56200940981439	0	0.9399999999999999	0	41.21729106567412	-9.986169004242985	-9.904819536995563	47.60570188772436	0.8308762406636699	0	0	0	41.21729106567412	-9.986169004242985	-9.904819536995563	47.60570188772436	0.8308762406636699	0	0	0	0.1764100148328711	1.375422408245872	-3.81151571585927	5.185077866014105	-1.999312848741056	-4.192843136682334	-1.740892711289868	98.4198283913237	0	0	103.4278635565353	-40.97240371767365	77.12814905730269	53.61475564577044	-9.953206195994825	0	0
8.359999999999911	-0.5231925781019523	2.206987869547055	21.66332125591057	0	0.9399999999999999	0	41.21845024893808	-9.986183568315218	-9.904884125657793	47.60725504747313	0.8309033484150955	0	0	0	41.21845024893808	-9.986183568315218	-9.904884125657793	47.60725504747313	0.8309033484150955	0	0	0	0.1952609150572694	1.3519576915363	-3.780848201420023	5.129602520700761	-1.990144003636996	-4.350307969330849	-1.723051697441298	98.45401125335989	0	0	103.4357778571898	-40.83549723089195	77.21933653195231	53.40257352469344	-9.953117992536464	0	0
8.37999999999991	-0.5167918692746286	2.203760707122798	21.72825874249301	0	0.9399999999999999	0	41.21892653403113	-9.986189543411031	-9.904910641730039	47.6078935958742	0.8309144931871275	0	0	0	41.21892653403113	-9.986189543411031	-9.904910641730039	47.6078935958742	0.8309144931871275	0	0	0	0.1993669925173511	1.346941341389715	-3.762537606720848	5.115144872654971	-2.027016763507708	-4.380306415997647	-1.716368558748243	98.40846175991751	0	0	103.4320120157297	-40.82209922080816	77.25973130540947	53.36329230419979	-9.952982721648651	0	0
8.39999999999991	-0.5132513669903265	2.208063550099648	21.75169893632718	0	0.9399999999999999	0	41.21978202053344	-9.986200042271477	-9.904957579659623	47.609064064934	0.8309349217260137	0	0	0	41.21978202053344	-9.986200042271477	-9.904957579659623	47.609064064934	0.8309349217260137	0	0	0	0.2051568996822391	1.349238143912362	-3.785442888734188	5.100516066216157	-2.032416633074519	-4.366471594871215	-1.715633597309892	98.39391864040796	0	0	103.4603637014637	-40.86069095344089	77.3385880746129	53.23145229499564	-9.952604244080783	0	0
8.419999999999909	-0.525982537162012	2.195316720892577	21.77518976115612	0	0.9399999999999999	0	41.22028173970854	-9.986206311551665	-9.904985404615763	47.60973357682025	0.83094660691281	0	0	0	41.22028173970854	-9.986206311551665	-9.904985404615763	47.60973357682025	0.83094660691281	0	0	0	0.1889986246734119	1.342010774844131	-3.794207372326449	5.132560940045338	-2.060733942683719	-4.341694501571595	-1.689478984663067	98.38737024022831	0	0	103.4697692561316	-40.93569549491349	77.36111865895701	53.18994857691038	-9.95186854644983	0	0
8.439999999999909	-0.5312626364544214	2.177557819864089	21.80910087151251	0	0.9399999999999999	0	41.22069277462336	-9.986211459056067	-9.905008265873708	47.61028502553324	0.8309562315085075	0	0	0	41.22069277462336	-9.986211459056067	-9.905008265873708	47.61028502553324	0.8309562315085075	0	0	0	0.1781327030526826	1.327156847079058	-3.810718913002537	5.13655080984593	-2.035398562344354	-4.29642609087869	-1.666970568832637	98.3815135752442	0	0	103.3555326912534	-41.07484683797442	77.37147635135703	53.24886173284037	-9.95150461182318	0	0
8.459999999999908	-0.5050669044353459	2.176705115877957	21.9103972506719	0	0.9399999999999999	0	41.22228947862614	-9.986231756467063	-9.905097962942449	47.61239681378003	0.8309930891665189	0	0	0	41.22228947862614	-9.986231756467063	-9.905097962942449	47.61239681378003	0.8309930891665189	0	0	0	0.2015278656949874	1.31708269949934	-3.789865074880083	5.07171030016786	-2.042511426211404	-4.316708201173109	-1.632875253499541	98.33600764461931	0	0	103.1080445476956	-41.14647807106721	77.27078527809374	53.54433709508892	-9.950570440422958	0	0
8.479999999999908	-0.4763867659578459	2.163256367944533	22.04721067621457	0	0.9399999999999999	0	41.2240094032464	-9.986253613884996	-9.905194579668001	47.61467032642765	0.8310327694478057	0	0	0	41.2240094032464	-9.986253613884996	-9.905194579668001	47.61467032642765	0.8310327694478057	0	0	0	0.2218780679764211	1.294689529151058	-3.751490172229727	5.014502432403574	-2.027091507628489	-4.425884129006334	-1.617728334744832	98.25814322624777	0	0	102.7831809559299	-41.25030268117537	77.11573221314043	53.87078354958165	-9.948336523061919	0	0
8.499999999999908	-0.4490012169298072	2.153621742996699	22.18768378059801	0	0.9399999999999999	0	41.22582844350602	-9.986276715680649	-9.905296739896846	47.61707401521087	0.8310747217312661	0	0	0	41.22582844350602	-9.986276715680649	-9.905296739896846	47.61707401521087	0.8310747217312661	0	0	0	0.2429229914555645	1.275929180843274	-3.723108745737904	4.930365400834923	-2.035578811173353	-4.495977893519249	-1.57174819544555	98.25002545627069	0	0	102.3677815171015	-41.42019244271306	76.89315284602111	54.32614428787103	-9.944263832524726	0	0
8.519999999999907	-0.4434546727903571	2.155190146413084	22.32601227242408	0	0.9399999999999999	0	41.227631853218	-9.986299593644077	-9.905397967704957	47.61945727023189	0.8311163173782976	0	0	0	41.227631853218	-9.986299593644077	-9.905397967704957	47.61945727023189	0.8311163173782976	0	0	0	0.2484159281069828	1.275566545649117	-3.707490039013845	4.87235447430908	-2.061779033885998	-4.47215844756664	-1.529960856163611	98.17395177591948	0	0	101.8124582921422	-41.62857028037119	76.50073524206574	54.77289796619677	-9.939855884059012	0	0
8.539999999999907	-0.4717768951273393	2.146907972008341	22.45772593943333	0	0.9399999999999999	0	41.22934739402186	-9.986321326147074	-9.905494191350524	47.62172531985257	0.8311559023117772	0	0	0	41.22934739402186	-9.986321326147074	-9.905494191350524	47.62172531985257	0.8311559023117772	0	0	0	0.2195968774862327	1.278638321060794	-3.719357552459333	4.847436675758985	-2.1206654012558	-4.282434109672896	-1.453142982967834	97.85371795210824	0	0	101.1164608995978	-41.94860511916668	75.9273328170253	55.35836104996586	-9.933461915713211	0	0
